<?xml version="1.0" encoding="UTF-8" standalone="no"?>
<!-- Created with Inkscape (http://www.inkscape.org/) -->

<svg
   width="348.43134"
   height="109.74896"
   viewBox="0 0 92.189122 29.037746"
   version="1.1"
   id="svg1"
   xml:space="preserve"
   xmlns:xlink="http://www.w3.org/1999/xlink"
   xmlns="http://www.w3.org/2000/svg"
   xmlns:svg="http://www.w3.org/2000/svg"
   xmlns:rdf="http://www.w3.org/1999/02/22-rdf-syntax-ns#"
   xmlns:cc="http://creativecommons.org/ns#"
   xmlns:dc="http://purl.org/dc/elements/1.1/"><defs
     id="defs1"><color-profile
       name="Adobe-RGB-1998"
       xlink:href="../../../Roaming/Roaming/Roaming/Roaming/Roaming/Roaming/Roaming/WINDOWS/system32/spool/drivers/color/AdobeRGB1998.icc"
       id="color-profile3" /><color-profile
       name="Coated-FOGRA39-ISO-12647-2:2004"
       xlink:href="../../../Roaming/Roaming/Roaming/Roaming/Roaming/Roaming/Roaming/WINDOWS/system32/spool/drivers/color/CoatedFOGRA39.icc"
       id="color-profile4" /></defs><metadata
     id="metadata1"><rdf:RDF><cc:Work
         rdf:about=""><dc:creator><cc:Agent><dc:title>Marco Krebs</dc:title></cc:Agent></dc:creator><dc:subject><rdf:Bag><rdf:li>Logotipo</rdf:li></rdf:Bag></dc:subject><dc:description>Logotipo para venda no Mercado Livre</dc:description></cc:Work></rdf:RDF></metadata><g
     id="g4"
     transform="translate(-199.507,-244.51571)"><path
       d="m 222.70659,244.53419 c -0.0284,0 -0.16899,0.005 -0.20516,0.005 h 3.5941 c 0.17785,0 0.32533,0.0969 0.4439,0.28991 0.13834,0.16544 0.20825,0.33065 0.20825,0.49609 0,0.16544 -0.0103,0.30312 -0.03,0.41341 l -6.81767,26.38807 c -0.21703,0.90845 -0.66104,1.36284 -1.33119,1.36425 h 45.95792 6.8554 c 0.21115,0 0.4478,-0.0384 0.69195,-0.0935 0.81455,-0.18383 1.72758,-0.65328 2.31045,-1.2945 l 0.54105,-0.93947 2.75746,-4.78627 3.62458,6.16241 c 0.34306,0.62379 0.84377,0.93908 1.50017,0.9493 v 5.1e-4 c 0.0109,1.7e-4 0.021,0.002 0.032,0.002 h 8.03413 c 0.22421,0 0.41122,-0.0826 0.56069,-0.24805 0.17439,-0.193 0.26148,-0.40004 0.26148,-0.62063 0,-0.22059 -0.0374,-0.3858 -0.11213,-0.49609 l -7.99693,-13.44208 7.81037,-12.78011 c 0.0747,-0.1103 0.11214,-0.27602 0.11214,-0.49661 0,-0.22058 -0.0871,-0.41333 -0.26148,-0.57877 -0.14947,-0.19302 -0.33648,-0.28991 -0.56069,-0.28991 h -7.87962 -0.15452 c -0.59785,0 -1.10869,0.31718 -1.5322,0.95137 l -3.13934,5.37694 -2.91456,-5.29426 c -0.39855,-0.68933 -0.92168,-1.03405 -1.56941,-1.03405 h -1.42368 -2.23604 c -0.007,-6e-5 -0.0137,-0.002 -0.0207,-0.002 z"
       style="font-size:39.3139px;line-height:1.25;font-family:'Rubik Mono One';-inkscape-font-specification:'Rubik Mono One, Normal';font-variant-ligatures:none;fill:#2b6b9e;fill-opacity:1;stroke-width:2.98979"
       id="path200" /><path
       d="m 220.85605,244.53419 c -0.0157,0 -0.0932,0.005 -0.11317,0.005 h 1.98593 c 0.0201,0 0.0392,0.007 0.0579,0.015 -0.31131,0.007 -0.55101,0.0107 -0.88367,0.0176 l 5.2e-4,-0.006 -2.065,-0.002 c 0.004,-6.2e-4 0.0101,-5.2e-4 0.014,-0.001 h -0.014 c -0.70301,0.10347 -1.15284,0.54961 -1.34772,1.34049 l -4.29741,15.8409 -4.29741,-15.8409 c -0.0997,-0.33088 -0.29897,-0.63429 -0.5979,-0.91002 -0.23786,-0.26325 -0.54545,-0.40551 -0.91467,-0.44028 v 0.001 h -0.0119 c 0.004,3.6e-4 0.008,7.7e-4 0.0119,0.001 l -1.8743,-0.002 v -0.001 l 1.86241,0.002 c -0.0519,-0.005 -0.10203,-0.0139 -0.15709,-0.0139 l -7.88531,-10e-4 c -0.22421,0 -0.42354,0.0969 -0.59789,0.28991 -0.14948,0.16544 -0.22428,0.33065 -0.22428,0.49609 0,0.16544 0.0128,0.30312 0.0377,0.41341 l 8.66924,26.51209 c 0.27405,0.82718 0.82224,1.24075 1.64435,1.24075 h 8.70696 c 7.6e-4,0 0.002,-3.6e-4 0.004,-5.2e-4 h 5.2e-4 29.19098 c 2.2831,0 3.4397,-28.23884 -0.86506,-28.95328 z"
       style="font-size:39.3139px;line-height:1.25;font-family:'Rubik Mono One';-inkscape-font-specification:'Rubik Mono One, Normal';font-variant-ligatures:none;fill:#2b6b9e;fill-opacity:1;stroke-width:2.98979"
       id="path201" /><path
       d="m 247.41415,244.51571 c -9.38024,-5e-5 -16.95282,6.59879 -16.95275,14.58237 0.0145,3.21693 1.28941,6.33782 3.62281,8.86855 0.19322,3.73267 -4.8473,5.5112 -4.54593,5.51301 0.30137,0.002 17.90757,0.0738 17.90757,0.0738 9.38012,5e-5 16.98435,-6.47183 16.98445,-14.45535 8e-5,-7.98358 -7.63591,-14.58242 -17.01615,-14.58237 z"
       style="fill:#52b1ff;fill-opacity:1;fill-rule:evenodd;stroke-width:4.39208;stroke-linecap:square;stroke-miterlimit:23.6;paint-order:markers stroke fill"
       id="path202" /></g></svg>
